<svg width="652" height="179" viewBox="0 0 652 179" fill="none" xmlns="http://www.w3.org/2000/svg">
<path fill-rule="evenodd" clip-rule="evenodd" d="M87.5359 108C94.6695 108 101.404 105.356 106.642 100.567C116.968 91.538 117.667 77.7695 112.728 67.3933C112.08 68.0917 111.331 68.7402 110.583 69.3389C106.492 72.6812 101.254 74.527 95.8667 74.527C82.7967 74.527 72.1212 63.9013 72.1212 50.8312C72.1212 45.6431 73.8173 40.7044 76.9102 36.6637V36.3643L79.0553 34.1195C79.9034 33.2714 80.7514 32.5231 81.6992 31.8248C70.8242 23.7932 56.3574 24.741 46.081 30.5776C35.7048 36.514 26.8252 48.9854 31.4645 66.8446C20.8389 69.4386 16 78.7174 16 87.0981C16 96.4766 22.086 107.003 35.7547 108H87.5359ZM105.944 63.4979C109.735 60.5048 112.08 55.9152 112.08 50.8268C112.08 41.8973 104.797 34.614 95.8172 34.614C91.3774 34.614 87.3367 36.4598 84.3934 39.403V39.4529C81.4003 42.3961 79.6044 46.4369 79.6044 50.8767C79.6044 59.8064 86.8877 67.0897 95.8172 67.0897C99.6584 67.0897 103.2 65.7428 105.944 63.4979ZM190.8 90.3L166.5 30.9L166.4 30.7001H147.5V34.7001H150.6C151.5 34.7001 152.4 35.1001 153.1 35.7001C153.8 36.4001 154.1 37.2001 154.1 38.2001L153.6 98.0001C153.6 99.9001 152.1 101.4 150.2 101.4L147.1 101.5V105.4H165.5V101.5L163.6 101.4C161.7 101.3 160.2 99.8001 160.2 98.0001V41.7001L186.7 105.5C187.1 106.4 188 107 188.9 107C189.9 107 190.8 106.4 191.1 105.5L217 43.2001L217.4 98.1001C217.4 100 215.9 101.5 214 101.6H212V105.5H233.6V101.6H230.7C228.8 101.6 227.3 100 227.3 98.2001L227.1 38.4C227.1 36.5 228.6 35 230.5 34.9L233.7 34.8V30.8H215.3L190.8 90.3ZM360.4 100.5C359.8 99.9001 359.5 99.1001 359.5 98.1001V68.7001C359.5 63.1001 357.9 58.7001 354.6 55.6001C351.4 52.5001 346.9 50.9 341.3 50.9C333.5 50.9 327.3 54.1 323 60.3C322.9 60.4 322.8 60.5001 322.6 60.5001C322.4 60.5001 322.3 60.4001 322.3 60.2001L320.3 52.4H316.9L308.2 57.4V60.1001H310.4C311.4 60.1001 312.3 60.4 312.9 60.9C313.5 61.4 313.8 62.3 313.8 63.4V98.0001C313.8 99.0001 313.5 99.8 312.9 100.4C312.3 101 311.5 101.3 310.5 101.3H308.3V105.3H328.3V101.3H326.1C325.1 101.3 324.3 101 323.7 100.4C323.1 99.8 322.8 99.0001 322.8 98.0001V75.1001C322.8 72.2001 323.5 69.3 324.7 66.4C326 63.6 327.8 61.3 330.3 59.4C332.8 57.6 335.7 56.7001 339.1 56.7001C342.9 56.7001 345.8 57.9 347.6 60.3C349.4 62.7 350.3 65.8001 350.3 69.6001V98.0001C350.3 99.0001 350 99.8 349.4 100.4C348.8 101 348 101.3 347 101.3H344.8V105.3H364.8V101.3H362.6C361.8 101.4 361 101.1 360.4 100.5ZM543.1 35.2001C537.6 32.3001 531.4 30.7001 524.7 30.7001H498.7V34.7001H501.2C502.2 34.7001 503 35.1001 503.9 36.0001C504.7 36.8001 505.1 37.7001 505.1 38.7001V97.4C505.1 98.4 504.7 99.3001 503.9 100.1C503.1 100.9 502.2 101.4 501.2 101.4H498.7V105.4H524.7C531.4 105.4 537.5 103.9 543.1 100.9C548.6 98 553.1 93.6001 556.4 88.0001C559.7 82.4001 561.3 75.7001 561.3 68.1001C561.3 60.5001 559.6 53.8001 556.4 48.2001C553.1 42.6001 548.7 38.2001 543.1 35.2001ZM550.9 68.0001C550.9 75.0001 549.7 80.9001 547.2 85.6001C544.8 90.3001 541.5 93.9001 537.5 96.2001C533.5 98.5001 529 99.6001 524.3 99.6001H519C518 99.6001 517.2 99.2 516.3 98.3C515.5 97.5 515.1 96.6001 515.1 95.6001V40.3C515.1 39.3 515.5 38.4001 516.3 37.6001C517.1 36.8001 518 36.3 519 36.3H524.3C529.1 36.3 533.5 37.4001 537.5 39.7001C541.5 42.0001 544.8 45.5 547.2 50.3C549.6 55.1 550.9 61.1001 550.9 68.0001ZM622.8 72.0001C620.4 69.2001 615.7 66.9001 610.3 65.6001C617.8 61.8001 621.7 56.5001 621.7 49.7001C621.7 46.0001 620.7 42.7 618.7 39.8C616.7 37 613.9 34.7001 610.4 33.1001C606.8 31.5001 602.7 30.7001 598 30.7001H568.5V34.7001H570.8C571.8 34.7001 572.7 35.1001 573.5 36.0001C574.3 36.8001 574.8 37.7001 574.8 38.7001V97.4C574.8 98.4 574.4 99.3001 573.5 100.1C572.7 100.9 571.8 101.4 570.8 101.4H568.2V105.4H600.2C605.1 105.4 609.6 104.6 613.7 102.9C617.8 101.3 621.1 98.9001 623.4 95.7001C625.8 92.5001 627 88.7001 627 84.2001C627.2 79.4001 625.7 75.3001 622.8 72.0001ZM586.2 98.4C585.4 97.6 584.9 96.7001 584.9 95.7001V69.4H600.1C605.5 69.4 609.6 70.8001 612.4 73.5001C615.2 76.2001 616.7 79.8001 616.7 84.1001C616.7 86.7001 616 89.3001 614.8 91.6001C613.5 94.0001 611.7 95.9 609.2 97.4C606.7 98.9 603.7 99.6001 600.1 99.6001H588.9C587.9 99.6001 587.1 99.3 586.2 98.4ZM585 63.8V40.4C585 39.4 585.4 38.5001 586.3 37.7001C587.1 36.9001 588 36.4 589 36.4H596.2C601.4 36.4 605.2 37.7001 607.6 40.2001C610 42.8001 611.2 46.0001 611.2 50.1001C611.2 54.2001 610.1 57.6001 607.8 60.1001C605.6 62.6001 602.2 63.8 597.7 63.8H585ZM284.2 54.4C280 52.1 275.4 50.9 270.3 50.9C265.2 50.9 260.5 52 256.4 54.4C252.2 56.7 248.9 60.0001 246.5 64.2001C244.1 68.4001 242.8 73.3001 242.8 78.7001C242.8 84.1001 244 89.0001 246.5 93.2001C249 97.4001 252.2 100.7 256.4 103C260.6 105.3 265.2 106.5 270.3 106.5C275.4 106.5 280.1 105.4 284.2 103C288.4 100.7 291.7 97.4001 294.1 93.2001C296.5 89.0001 297.8 84.1001 297.8 78.7001C297.8 73.3001 296.6 68.4001 294.1 64.2001C291.7 60.0001 288.4 56.7 284.2 54.4ZM288.2 78.7001C288.2 85.4001 286.6 90.8001 283.3 94.7001C280.1 98.6001 275.7 100.6 270.3 100.6C264.9 100.6 260.5 98.6001 257.3 94.7001C254 90.8001 252.4 85.4001 252.4 78.7001C252.4 72.0001 254 66.6001 257.3 62.7001C260.5 58.8001 264.9 56.8 270.3 56.8C275.7 56.8 280.1 58.8001 283.3 62.7001C286.6 66.6001 288.2 72.0001 288.2 78.7001ZM476.4 54.4C472.2 52.1 467.6 50.9 462.5 50.9C457.5 50.9 452.7 52 448.6 54.4C444.4 56.7 441.1 60.0001 438.7 64.2001C436.3 68.4001 435 73.3001 435 78.7001C435 84.1001 436.2 89.0001 438.7 93.2001C441.1 97.4001 444.4 100.7 448.6 103C452.8 105.3 457.4 106.5 462.5 106.5C467.5 106.5 472.3 105.4 476.4 103C480.6 100.7 483.9 97.4001 486.3 93.2001C488.7 89.0001 490 84.1001 490 78.7001C490 73.3001 488.8 68.4001 486.3 64.2001C483.9 60.0001 480.5 56.7 476.4 54.4ZM480.4 78.7001C480.4 85.4001 478.8 90.8001 475.5 94.7001C472.3 98.6001 467.9 100.6 462.5 100.6C457.1 100.6 452.7 98.6001 449.5 94.7001C446.2 90.8001 444.6 85.4001 444.6 78.7001C444.6 72.0001 446.2 66.6001 449.5 62.7001C452.7 58.8001 457.1 56.8 462.5 56.8C467.9 56.8 472.3 58.8001 475.5 62.7001C478.7 66.6001 480.4 72.0001 480.4 78.7001ZM398.9 50.9C394.5 50.9 390.5 51.8001 386.9 53.7001C383.3 55.6001 380.5 58.1 378.4 61.3C376.4 64.5 375.3 68 375.3 71.8C375.3 75.2 376.1 78.3001 377.6 81.1001C379.1 83.8001 381.2 86 383.8 87.9L376 98.5001C375 99.8001 374.9 101.6 375.6 103C376.4 104.5 377.8 105.3 379.4 105.3H381.6C379.4 106.8 377.7 108.5 376.5 110.6C375.1 112.9 374.4 115.4 374.4 117.9C374.4 122.6 376.5 126.5 380.6 129.4C384.6 132.3 390.3 133.8 397.5 133.8C402.5 133.8 407.2 133 411.5 131.4C415.9 129.8 419.4 127.5 422 124.4C424.7 121.3 426 117.6 426 113.4C426 108.9 424.4 105.8 420.5 102.7C417.2 100.1 412.1 98.8 405.7 98.8H383.9C383.8 98.8 383.8 98.7001 383.8 98.7001C383.8 98.7001 383.7 98.6001 383.8 98.5001L389.5 90.9C391 91.6 392.4 92 393.7 92.3C395 92.6 396.5 92.7001 398.1 92.7001C402.7 92.7001 406.8 91.8 410.4 89.9C414 88 416.9 85.5 419 82.3C421.1 79.1 422.1 75.6 422.1 71.8C422.1 67.8 420.1 60.4001 414.8 56.6001C414.8 56.5001 414.9 56.5001 414.9 56.5001L426.6 57.8V52.4H407.8C405.1 51.5 402.1 50.9 398.9 50.9ZM405.4 85.1001C403.3 86.2001 401.1 86.8 398.8 86.8C395.1 86.8 391.9 85.5 389.2 82.9C386.5 80.3 385.1 76.6 385.1 71.8C385.1 67 386.5 63.2001 389.2 60.7001C391.9 58.1001 395.2 56.8 398.8 56.8C401.1 56.8 403.3 57.3001 405.4 58.5001C407.5 59.6001 409.2 61.3001 410.5 63.5001C411.8 65.7001 412.5 68.5 412.5 71.8C412.5 75.1 411.8 77.9001 410.5 80.1001C409.3 82.3001 407.5 84.0001 405.4 85.1001ZM390.6 105.2H405.4C409.5 105.2 412.1 106 413.9 107.8C415.6 109.5 416.5 111.9 416.5 114.6C416.5 118.6 414.9 121.9 411.7 124.3C408.5 126.8 404.3 128 399 128C394.4 128 390.6 127 387.8 125C385 123 383.6 120 383.6 116.2C383.6 113.8 384.3 111.6 385.6 109.6C387 107.6 388.6 106.2 390.6 105.2ZM217.345 158.484C215.028 158.484 212.872 158.088 210.877 157.296C208.912 156.475 207.181 155.331 205.685 153.864C204.219 152.398 203.075 150.696 202.253 148.76C201.432 146.795 201.021 144.683 201.021 142.424C201.021 140.166 201.432 138.068 202.253 136.132C203.075 134.167 204.219 132.466 205.685 131.028C207.152 129.591 208.868 128.476 210.833 127.684C212.828 126.863 214.984 126.452 217.301 126.452C219.765 126.452 221.951 126.848 223.857 127.64C225.793 128.432 227.48 129.518 228.917 130.896L224.297 135.56C223.476 134.68 222.479 133.991 221.305 133.492C220.161 132.994 218.827 132.744 217.301 132.744C215.952 132.744 214.705 132.979 213.561 133.448C212.447 133.888 211.479 134.534 210.657 135.384C209.865 136.235 209.235 137.262 208.765 138.464C208.325 139.667 208.105 140.987 208.105 142.424C208.105 143.891 208.325 145.226 208.765 146.428C209.235 147.631 209.865 148.658 210.657 149.508C211.479 150.359 212.447 151.019 213.561 151.488C214.705 151.958 215.952 152.192 217.301 152.192C218.885 152.192 220.264 151.943 221.437 151.444C222.611 150.946 223.623 150.256 224.473 149.376L229.137 154.04C227.641 155.419 225.925 156.504 223.989 157.296C222.083 158.088 219.868 158.484 217.345 158.484ZM155.604 132.964V158H162.512V132.964H172.236V126.936H145.88V132.964H155.604ZM176.094 126.936V158H181.374H183.002H198.402V152.016H183.002V145.02H196.862V139.256H183.002V132.876H198.182V126.936H183.002H181.374H176.094ZM232.941 126.936V158H239.849V145.02H252.169V158H259.121V126.936H252.169V139.036H239.849V126.936H232.941Z" fill="#001E2B"/>
</svg>
